REM DIRINDEX 1\2\6,1\2\7,1\2\8,1\2\9,1\3\10,1\3\11,1\4\12,1\4\13,1\4\14,1\5\15,1\5\16,1\5\17
REM DIRNAME cjc020,folder01,folder02,folder03,folder04,folder05,folder06,folder07,folder08,folder09,folder10,folder11,folder12,folder13,folder14,folder15,folder16
TITLE ""
FILE "1900_3_004 sec01_0048_0063.mp3" MP3
  TRACK 01 AUDIO
    TITLE "0:"
    INDEX 01 00:00:00
  TRACK 02 AUDIO
    TITLE "17:cjc020_6062"
    INDEX 01 00:00:17
  TRACK 03 AUDIO
    TITLE "0:"
    INDEX 01 00:01:28
  TRACK 04 AUDIO
    TITLE "16:cjc020_6063"
    INDEX 01 00:01:30
  TRACK 05 AUDIO
    TITLE "0:"
    INDEX 01 00:02:38
  TRACK 06 AUDIO
    TITLE "17:cjc020_6064"
    INDEX 01 00:03:12
  TRACK 07 AUDIO
    TITLE "0:"
    INDEX 01 00:04:27
  TRACK 08 AUDIO
    TITLE "16:cjc020_6065"
    INDEX 01 00:04:31
  TRACK 09 AUDIO
    TITLE "0:"
    INDEX 01 00:05:59
  TRACK 10 AUDIO
    TITLE "17:cjc020_6066"
    INDEX 01 00:06:45
  TRACK 11 AUDIO
    TITLE "0:"
    INDEX 01 00:08:56
  TRACK 12 AUDIO
    TITLE "16:cjc020_6067"
    INDEX 01 00:08:58
  TRACK 13 AUDIO
    TITLE "0:"
    INDEX 01 00:09:63
  TRACK 14 AUDIO
    TITLE "17:cjc020_6068"
    INDEX 01 00:10:51
  TRACK 15 AUDIO
    TITLE "0:"
    INDEX 01 00:13:08
  TRACK 16 AUDIO
    TITLE "16:cjc020_6069"
    INDEX 01 00:13:12
  TRACK 17 AUDIO
    TITLE "0:"
    INDEX 01 00:14:31
  TRACK 18 AUDIO
    TITLE "17:cjc020_6070"
    INDEX 01 00:15:11
  TRACK 19 AUDIO
    TITLE "0:"
    INDEX 01 00:16:49
  TRACK 20 AUDIO
    TITLE "16:cjc020_6071"
    INDEX 01 00:16:57
  TRACK 21 AUDIO
    TITLE "0:"
    INDEX 01 00:17:59
  TRACK 22 AUDIO
    TITLE "17:cjc020_6072"
    INDEX 01 00:18:39
  TRACK 23 AUDIO
    TITLE "0:"
    INDEX 01 00:19:34
  TRACK 24 AUDIO
    TITLE "16:cjc020_6073"
    INDEX 01 00:19:40
  TRACK 25 AUDIO
    TITLE "0:"
    INDEX 01 00:20:47
  TRACK 26 AUDIO
    TITLE "17:cjc020_6074"
    INDEX 01 00:21:29
  TRACK 27 AUDIO
    TITLE "0:"
    INDEX 01 00:23:32
  TRACK 28 AUDIO
    TITLE "16:cjc020_6075"
    INDEX 01 00:23:36
  TRACK 29 AUDIO
    TITLE "0:"
    INDEX 01 00:24:43
  TRACK 30 AUDIO
    TITLE "17:cjc020_6076"
    INDEX 01 00:25:27
  TRACK 31 AUDIO
    TITLE "0:"
    INDEX 01 00:27:53
  TRACK 32 AUDIO
    TITLE "16:cjc020_6077"
    INDEX 01 00:27:57
  TRACK 33 AUDIO
    TITLE "0:"
    INDEX 01 00:28:62
  TRACK 34 AUDIO
    TITLE "17:cjc020_6078"
    INDEX 01 00:29:46
  TRACK 35 AUDIO
    TITLE "0:"
    INDEX 01 00:30:44
  TRACK 36 AUDIO
    TITLE "16:cjc020_6079"
    INDEX 01 00:30:48
  TRACK 37 AUDIO
    TITLE "0:"
    INDEX 01 00:31:63
  TRACK 38 AUDIO
    TITLE "17:cjc020_6080"
    INDEX 01 00:32:48
  TRACK 39 AUDIO
    TITLE "0:"
    INDEX 01 00:33:36
  TRACK 40 AUDIO
    TITLE "16:cjc020_6081"
    INDEX 01 00:33:40
  TRACK 41 AUDIO
    TITLE "0:"
    INDEX 01 00:34:49
  TRACK 42 AUDIO
    TITLE "17:cjc020_6082"
    INDEX 01 00:35:33
  TRACK 43 AUDIO
    TITLE "0:"
    INDEX 01 00:36:38
  TRACK 44 AUDIO
    TITLE "16:cjc020_6083"
    INDEX 01 00:36:42
  TRACK 45 AUDIO
    TITLE "0:"
    INDEX 01 00:37:69
  TRACK 46 AUDIO
    TITLE "17:cjc020_6084"
    INDEX 01 00:38:51
  TRACK 47 AUDIO
    TITLE "0:"
    INDEX 01 00:39:60
  TRACK 48 AUDIO
    TITLE "16:cjc020_6085"
    INDEX 01 00:39:64
  TRACK 49 AUDIO
    TITLE "0:"
    INDEX 01 00:41:16
  TRACK 50 AUDIO
    TITLE "17:cjc020_6086"
    INDEX 01 00:41:73
  TRACK 51 AUDIO
    TITLE "0:"
    INDEX 01 00:43:09
  TRACK 52 AUDIO
    TITLE "16:cjc020_6087"
    INDEX 01 00:43:13
  TRACK 53 AUDIO
    TITLE "0:"
    INDEX 01 00:44:09
  TRACK 54 AUDIO
    TITLE "17:cjc020_6088"
    INDEX 01 00:44:71
  TRACK 55 AUDIO
    TITLE "0:"
    INDEX 01 00:46:02
  TRACK 56 AUDIO
    TITLE "16:cjc020_6089"
    INDEX 01 00:46:07
  TRACK 57 AUDIO
    TITLE "0:"
    INDEX 01 00:47:21
  TRACK 58 AUDIO
    TITLE "17:cjc020_6090"
    INDEX 01 00:48:06
  TRACK 59 AUDIO
    TITLE "0:"
    INDEX 01 00:49:21
  TRACK 60 AUDIO
    TITLE "16:cjc020_6091"
    INDEX 01 00:49:27
  TRACK 61 AUDIO
    TITLE "0:"
    INDEX 01 00:50:46
  TRACK 62 AUDIO
    TITLE "17:cjc020_6092"
    INDEX 01 00:51:26
  TRACK 63 AUDIO
    TITLE "0:"
    INDEX 01 00:52:30
  TRACK 64 AUDIO
    TITLE "16:cjc020_6093"
    INDEX 01 00:52:34
  TRACK 65 AUDIO
    TITLE "0:"
    INDEX 01 00:53:51
